# xmcd
#
# Track frame offsets: 
#        150
#        12807
#        23894
#        34993
#        44903
#        58532
#        69574
#        83601
#        94678
#        106420
#        118178
#        130986
#        145479
#        160201
#        171825
#        185532
#        194031
#        204213
#        215672
#        227266
#
# Disc length: 3173 seconds
#
# Revision: 0
# Processed by: cddbd v1.5.2PL0 Copyright (c) Steve Scherf et al.
# Submitted via: ExactAudioCopy v0.95b4
#
DISCID=210c6314
DTITLE=Willie Nelson - Broken Promises [1]
DYEAR=1900
DGENRE=Country
TTITLE0=Follow Me Around
TTITLE1=Who Do I Know In Dallas
TTITLE2=December Days
TTITLE3=Ashamed
TTITLE4=Everything But You
TTITLE5=Some Other Time
TTITLE6=Will You Remember Me
TTITLE7=Go Away
TTITLE8=I Don't Feel Anything
TTITLE9=I'll Stay Around
TTITLE10=She's Not For You
TTITLE11=What Can You Do To Me Now
TTITLE12=So Much To Do
TTITLE13=Pages
TTITLE14=Undo The Right
TTITLE15=Slow Down Old World
TTITLE16=Pride Wins Again
TTITLE17=I'm Going To Lose A Lot Of Teardrops
TTITLE18=Is There Something On Your Mind
TTITLE19=Suffering In Silence
EXTD=
EXTT0=
EXTT1=
EXTT2=
EXTT3=
EXTT4=
EXTT5=
EXTT6=
EXTT7=
EXTT8=
EXTT9=
EXTT10=
EXTT11=
EXTT12=
EXTT13=
EXTT14=
EXTT15=
EXTT16=
EXTT17=
EXTT18=
EXTT19=
PLAYORDER=
